<?xml version="1.0" encoding="utf-8"?>
<!-- Generator: Adobe Illustrator 24.1.0, SVG Export Plug-In . SVG Version: 6.00 Build 0)  -->
<svg version="1.1" id="Calque_1" xmlns="http://www.w3.org/2000/svg" xmlns:xlink="http://www.w3.org/1999/xlink" x="0px" y="0px"
	 viewBox="0 0 40.6 7.7" style="enable-background:new 0 0 40.6 7.7;" xml:space="preserve">
<style type="text/css">
	.st0{fill:none;stroke:#000000;stroke-width:0.7;stroke-linecap:round;stroke-linejoin:round;stroke-miterlimit:10;}
	.st1{fill:#FFFFFF;}
	.st2{fill:none;stroke:#000000;stroke-width:0.8;stroke-miterlimit:10;}
	.st3{fill:none;stroke:#000000;stroke-width:0.8;stroke-linejoin:bevel;stroke-miterlimit:10;}
	.st4{font-family:'Helvetica-Bold';}
	.st5{font-size:5.7066px;}
</style>
<g>
	<polyline class="st0" points="4,3.3 5.9,0.6 8.9,5.2 	"/>
</g>
<path class="st1" d="M2.7,5.2h4.1H2.7z"/>
<line class="st0" x1="6.8" y1="5.2" x2="2.7" y2="5.2"/>
<g>
	<path class="st2" d="M4.8,5.7c-0.2,0.9-1,1.5-2,1.5c-1.2,0-2.1-1-2.1-2.1s1-2.1,2.1-2.1c1,0,2,0.8,2.1,1.8"/>
	<path class="st3" d="M8.1,3.1C8.4,3,8.7,2.9,9,2.9c1.2,0,2.1,1,2.1,2.1s-1,2.1-2.1,2.1S6.8,6.2,6.8,5c0-0.5,0.2-1,0.5-1.4"/>
</g>
<text transform="matrix(1.1269 0 0 1 11.73 7.1469)" class="st4 st5">BiKe-It.re</text>
</svg>
