<?xml version="1.0" encoding="utf-8"?>
<!-- Generator: Adobe Illustrator 24.1.0, SVG Export Plug-In . SVG Version: 6.00 Build 0)  -->
<svg version="1.1" id="Calque_1" xmlns="http://www.w3.org/2000/svg" xmlns:xlink="http://www.w3.org/1999/xlink" x="0px" y="0px"
	 viewBox="0 0 547.01 99.54" style="enable-background:new 0 0 547.01 99.54;" xml:space="preserve">
<style type="text/css">
	.st0{fill:none;stroke:#86AA50;stroke-width:6;stroke-linecap:round;stroke-linejoin:round;stroke-miterlimit:10;}
	.st1{fill:#FFFFFF;}
	.st2{fill:none;stroke:#86AA50;stroke-width:6;stroke-miterlimit:10;}
	.st3{fill:none;stroke:#86AA50;stroke-width:6;stroke-linejoin:bevel;stroke-miterlimit:10;}
	.st4{fill:#FDFDFD;}
</style>
<g>
	<polyline class="st0" points="53.05,40.85 77.18,6.05 116.23,65.31 	"/>
</g>
<path class="st1" d="M36.04,65.38h53.97H36.04z"/>
<line class="st0" x1="90.01" y1="65.38" x2="36.04" y2="65.38"/>
<g>
	<path class="st2" d="M63.34,71.59c-3.52,11.18-13.97,19.28-26.3,19.28c-15.23,0-27.58-12.35-27.58-27.58s12.35-27.58,27.58-27.58
		c13.79,0,25.22,10.13,27.25,23.36"/>
	<path class="st3" d="M106.08,38.22c3.5-1.61,7.4-2.51,11.51-2.51c15.23,0,27.58,12.35,27.58,27.58s-12.35,27.58-27.58,27.58
		S90.01,78.52,90.01,63.29c0-6.57,2.3-12.6,6.13-17.34"/>
</g>
<g>
	<path class="st4" d="M221.16,41.96c1.85,2.28,2.78,5.02,2.78,8.2c0,3.28-0.93,5.92-2.8,7.91c-1.04,1.12-2.58,2.14-4.62,3.06
		c3.09,1,5.42,2.58,6.99,4.74s2.36,4.79,2.36,7.87c0,3.18-0.9,6.04-2.7,8.57c-1.14,1.68-2.57,3.09-4.29,4.23
		c-1.93,1.31-4.21,2.21-6.84,2.7c-2.63,0.49-5.48,0.73-8.56,0.73H176.2V36.24h29.26C212.85,36.33,218.08,38.24,221.16,41.96z
		 M188.28,45.57v11.85H203c2.63,0,4.76-0.44,6.4-1.33c1.64-0.89,2.46-2.46,2.46-4.72c0-2.5-1.08-4.16-3.25-4.96
		c-1.87-0.56-4.26-0.84-7.16-0.84C201.45,45.57,188.28,45.57,188.28,45.57z M188.28,66.31v14.33h14.7c2.63,0,4.67-0.32,6.13-0.95
		c2.65-1.17,3.98-3.4,3.98-6.71c0-2.79-1.29-4.71-3.86-5.76c-1.44-0.58-3.45-0.89-6.05-0.91H188.28z"/>
	<path class="st4" d="M247.85,45.49h-11.87V35.9h11.87V45.49z M235.98,50.23h11.87v39.73h-11.87V50.23z"/>
	<path class="st4" d="M260.34,36.24h12.45v22.14l23.39-22.14h16.35l-24.85,22.1l26.12,31.63h-16.27l-18.66-23.46L272.78,72v17.97
		h-12.45L260.34,36.24L260.34,36.24z"/>
	<path class="st4" d="M349.12,51.04c3.12,1.24,5.7,3.2,7.74,5.88c1.83,2.36,3.02,5.1,3.57,8.21c0.32,1.83,0.44,4.45,0.39,7.89H328.2
		c0.18,3.99,1.74,6.78,4.68,8.38c1.79,1,3.94,1.49,6.46,1.49c2.67,0,4.83-0.61,6.5-1.82c0.91-0.66,1.71-1.57,2.41-2.73h11.95
		c-0.32,2.36-1.76,4.75-4.34,7.18c-4.01,3.86-9.63,5.8-16.84,5.8c-5.96,0-11.22-1.63-15.77-4.89c-4.56-3.26-6.83-8.56-6.83-15.91
		c0-6.88,2.06-12.16,6.17-15.83s9.45-5.51,16.01-5.51C342.48,49.18,345.99,49.8,349.12,51.04z M331.6,60.01
		c-1.66,1.51-2.69,3.56-3.12,6.15h20.17c-0.21-2.76-1.25-4.85-3.12-6.28s-4.18-2.14-6.94-2.14C335.59,57.74,333.26,58.5,331.6,60.01
		z"/>
	<path class="st4" d="M363.2,64.23h22.92v9.84H363.2V64.23z"/>
	<path class="st4" d="M407.23,89.97h-12.57V36.24h12.57V89.97z"/>
	<path class="st4" d="M413.52,58v-7.4h6.24V39.52h11.58V50.6h7.27V58h-7.27v21c0,1.63,0.23,2.64,0.7,3.04s1.89,0.6,4.27,0.6
		c0.36,0,0.73-0.01,1.13-0.02c0.4-0.01,0.79-0.03,1.17-0.05v7.76l-5.55,0.18c-5.53,0.17-9.31-0.68-11.34-2.55
		c-1.31-1.19-1.97-3.03-1.97-5.5V58H413.52z"/>
	<path class="st4" d="M445.93,79.07h12.45v10.9h-12.45V79.07z"/>
	<path class="st4" d="M494.38,49.3c0.15,0.01,0.49,0.03,1.01,0.05V60c-0.74-0.07-1.4-0.12-1.97-0.15c-0.58-0.02-1.04-0.04-1.4-0.04
		c-4.71,0-7.87,1.36-9.49,4.08c-0.9,1.53-1.36,3.89-1.36,7.07v18.99h-11.79V50.23h11.17v6.93c1.81-2.65,3.38-4.46,4.72-5.43
		c2.19-1.63,5.04-2.44,8.54-2.44C494.05,49.29,494.23,49.29,494.38,49.3z"/>
	<path class="st4" d="M531.42,51.04c3.12,1.24,5.7,3.2,7.74,5.88c1.83,2.36,3.02,5.1,3.57,8.21c0.32,1.83,0.44,4.45,0.39,7.89H510.5
		c0.18,3.99,1.74,6.78,4.68,8.38c1.79,1,3.94,1.49,6.46,1.49c2.67,0,4.83-0.61,6.5-1.82c0.91-0.66,1.71-1.57,2.41-2.73h11.95
		c-0.32,2.36-1.76,4.75-4.34,7.18c-4.01,3.86-9.63,5.8-16.84,5.8c-5.96,0-11.22-1.63-15.77-4.89c-4.56-3.26-6.83-8.56-6.83-15.91
		c0-6.88,2.06-12.16,6.17-15.83s9.45-5.51,16.01-5.51C524.79,49.18,528.3,49.8,531.42,51.04z M513.91,60.01
		c-1.66,1.51-2.69,3.56-3.12,6.15h20.17c-0.21-2.76-1.25-4.85-3.12-6.28s-4.18-2.14-6.94-2.14
		C517.89,57.74,515.56,58.5,513.91,60.01z"/>
</g>
</svg>
